<mxfile host="app.diagrams.net" modified="2021-04-27T02:50:52.836Z" agent="5.0 (Macintosh; Intel Mac OS X 10_16_0) AppleWebKit/537.36 (KHTML, like Gecko) Chrome/81.0.4044.138 Safari/537.36" etag="fS72FxMs3hCaelWw-_rJ" version="14.6.6" type="github">
  <diagram id="NHU5vDW58mHV1typeJDu" name="Page-1">
    <mxGraphModel dx="1298" dy="703" grid="1" gridSize="10" guides="1" tooltips="1" connect="1" arrows="1" fold="1" page="1" pageScale="1" pageWidth="827" pageHeight="1169" math="0" shadow="0">
      <root>
        <mxCell id="0" />
        <mxCell id="1" parent="0" />
        <mxCell id="5JXfPTWoFM99KCITv_9I-1" value="" style="edgeStyle=orthogonalEdgeStyle;rounded=0;orthogonalLoop=1;jettySize=auto;html=1;" edge="1" parent="1" source="5JXfPTWoFM99KCITv_9I-2" target="5JXfPTWoFM99KCITv_9I-6">
          <mxGeometry relative="1" as="geometry" />
        </mxCell>
        <mxCell id="5JXfPTWoFM99KCITv_9I-2" value="console" style="rounded=0;whiteSpace=wrap;html=1;" vertex="1" parent="1">
          <mxGeometry x="120" y="100" width="120" height="60" as="geometry" />
        </mxCell>
        <mxCell id="5JXfPTWoFM99KCITv_9I-3" value="open api gateway" style="rounded=0;whiteSpace=wrap;html=1;" vertex="1" parent="1">
          <mxGeometry x="120" y="190" width="120" height="40" as="geometry" />
        </mxCell>
        <mxCell id="5JXfPTWoFM99KCITv_9I-4" value="" style="edgeStyle=orthogonalEdgeStyle;rounded=0;orthogonalLoop=1;jettySize=auto;html=1;" edge="1" parent="1" source="5JXfPTWoFM99KCITv_9I-6">
          <mxGeometry relative="1" as="geometry">
            <mxPoint x="320" y="290" as="targetPoint" />
          </mxGeometry>
        </mxCell>
        <mxCell id="5JXfPTWoFM99KCITv_9I-5" value="" style="edgeStyle=orthogonalEdgeStyle;rounded=0;orthogonalLoop=1;jettySize=auto;html=1;" edge="1" parent="1" source="5JXfPTWoFM99KCITv_9I-6" target="5JXfPTWoFM99KCITv_9I-13">
          <mxGeometry relative="1" as="geometry" />
        </mxCell>
        <mxCell id="5JXfPTWoFM99KCITv_9I-6" value="service" style="rounded=0;whiteSpace=wrap;html=1;" vertex="1" parent="1">
          <mxGeometry x="120" y="260" width="120" height="60" as="geometry" />
        </mxCell>
        <mxCell id="5JXfPTWoFM99KCITv_9I-7" value="" style="edgeStyle=orthogonalEdgeStyle;rounded=0;orthogonalLoop=1;jettySize=auto;html=1;" edge="1" parent="1" source="5JXfPTWoFM99KCITv_9I-8" target="5JXfPTWoFM99KCITv_9I-11">
          <mxGeometry relative="1" as="geometry" />
        </mxCell>
        <mxCell id="5JXfPTWoFM99KCITv_9I-8" value="RAM" style="rounded=0;whiteSpace=wrap;html=1;" vertex="1" parent="1">
          <mxGeometry x="480" y="260" width="120" height="60" as="geometry" />
        </mxCell>
        <mxCell id="5JXfPTWoFM99KCITv_9I-9" value="" style="edgeStyle=orthogonalEdgeStyle;rounded=0;orthogonalLoop=1;jettySize=auto;html=1;" edge="1" parent="1" source="5JXfPTWoFM99KCITv_9I-11" target="5JXfPTWoFM99KCITv_9I-8">
          <mxGeometry relative="1" as="geometry" />
        </mxCell>
        <mxCell id="5JXfPTWoFM99KCITv_9I-10" value="" style="edgeStyle=orthogonalEdgeStyle;rounded=0;orthogonalLoop=1;jettySize=auto;html=1;" edge="1" parent="1" source="5JXfPTWoFM99KCITv_9I-11" target="5JXfPTWoFM99KCITv_9I-6">
          <mxGeometry relative="1" as="geometry" />
        </mxCell>
        <mxCell id="5JXfPTWoFM99KCITv_9I-11" value="RAM SDK" style="strokeWidth=2;html=1;shape=mxgraph.flowchart.start_1;whiteSpace=wrap;" vertex="1" parent="1">
          <mxGeometry x="320" y="260" width="100" height="60" as="geometry" />
        </mxCell>
        <mxCell id="5JXfPTWoFM99KCITv_9I-12" value="GET USER&lt;br&gt;&lt;br&gt;By AK" style="text;html=1;align=center;verticalAlign=middle;resizable=0;points=[];autosize=1;strokeColor=none;" vertex="1" parent="1">
          <mxGeometry x="240" y="265" width="80" height="50" as="geometry" />
        </mxCell>
        <mxCell id="5JXfPTWoFM99KCITv_9I-13" value="DB" style="shape=cylinder;whiteSpace=wrap;html=1;boundedLbl=1;backgroundOutline=1;rounded=0;" vertex="1" parent="1">
          <mxGeometry x="150" y="340" width="60" height="50" as="geometry" />
        </mxCell>
        <mxCell id="5JXfPTWoFM99KCITv_9I-14" value="" style="endArrow=none;html=1;rounded=0;dashed=1;dashPattern=1 2;" edge="1" parent="1">
          <mxGeometry relative="1" as="geometry">
            <mxPoint x="80" y="170" as="sourcePoint" />
            <mxPoint x="620" y="170" as="targetPoint" />
          </mxGeometry>
        </mxCell>
        <mxCell id="5JXfPTWoFM99KCITv_9I-15" value="&lt;font style=&quot;font-size: 18px&quot;&gt;client&lt;/font&gt;" style="text;html=1;align=center;verticalAlign=middle;resizable=0;points=[];autosize=1;strokeColor=none;" vertex="1" parent="1">
          <mxGeometry x="445" y="130" width="60" height="20" as="geometry" />
        </mxCell>
        <mxCell id="5JXfPTWoFM99KCITv_9I-16" value="Server" style="text;html=1;align=center;verticalAlign=middle;resizable=0;points=[];autosize=1;strokeColor=none;fontSize=18;" vertex="1" parent="1">
          <mxGeometry x="445" y="365" width="70" height="30" as="geometry" />
        </mxCell>
        <mxCell id="5JXfPTWoFM99KCITv_9I-17" value="AK" style="text;html=1;align=center;verticalAlign=middle;resizable=0;points=[];autosize=1;strokeColor=none;fontSize=18;" vertex="1" parent="1">
          <mxGeometry x="240" y="195" width="40" height="30" as="geometry" />
        </mxCell>
      </root>
    </mxGraphModel>
  </diagram>
</mxfile>
